<svg xmlns="http://www.w3.org/2000/svg" viewBox="0 0 468 585" xml:space="preserve">
  <g>
    <g>
      <g>
        <path
          d="M212.035,468c-12.081,0-21.988-9.091-23.558-21.618c-0.041-0.33-0.062-27.725-0.062-27.725     c-19.593-4.798-38.516-12.798-55.381-23.413c0,0-19.479,19.385-19.837,19.641c-10.283,7.329-23.347,6.579-31.771-1.826     c-0.032-0.032-0.063-0.064-0.095-0.097c0,0-28.84-29.813-29.07-30.134c-7.357-10.277-6.604-23.333,1.83-31.75l18.907-18.866     c-10.982-18.089-18.771-37.262-22.803-56.118H23.62c-12.082,0-21.989-9.091-23.558-21.618C0.021,254.147,0,212.569,0,212.569     c0-12.066,9.106-21.959,21.653-23.524c0.329-0.041,27.799-0.062,27.799-0.062c4.807-19.542,12.819-38.417,23.448-55.24     l-18.811-18.77c-0.312-0.312-0.598-0.648-0.854-1.007c-7.356-10.278-6.604-23.334,1.831-31.75     c0.032-0.032,0.064-0.063,0.097-0.095c0,0,29.876-28.777,30.198-29.007c10.284-7.329,23.348-6.579,31.771,1.826l18.926,18.885     c18.135-10.967,37.359-18.744,56.262-22.768V23.586c0-12.066,9.106-21.96,21.653-23.525C214.302,0.021,255.965,0,255.965,0     c12.486,0,22.644,10.581,22.644,23.586v26.73c19.593,4.798,38.516,12.798,55.381,23.413c0,0,19.479-19.385,19.837-19.641     c10.284-7.33,23.348-6.58,31.771,1.826c0.032,0.032,0.063,0.064,0.095,0.097c0,0,28.84,29.812,29.07,30.134     c7.357,10.278,6.605,23.334-1.83,31.751l-18.907,18.866c10.982,18.089,18.771,37.261,22.803,56.117h26.574     c12.851,0,22.94,8.89,24.534,21.618c0.042,0.33,0.062,41.908,0.062,41.908c0,12.066-9.106,21.959-21.653,23.524     c-0.329,0.041-27.799,0.062-27.799,0.062c-4.807,19.542-12.819,38.417-23.448,55.24c0,0,19.408,19.417,19.665,19.776     c7.357,10.278,6.604,23.334-1.831,31.751c-0.032,0.032-0.064,0.063-0.097,0.095c0,0-29.876,28.777-30.198,29.007     c-10.285,7.33-23.349,6.578-31.771-1.826l-18.926-18.885c-18.135,10.967-37.359,18.744-56.262,22.768v26.498     c0,12.066-9.106,21.96-21.653,23.525C253.698,467.979,212.035,468,212.035,468z M204.415,444.818     c0.607,3.642,3.146,7.182,7.62,7.182h40.427c2.864-0.49,7.219-2.551,7.219-7.586v-33.121c0-3.912,2.829-7.25,6.688-7.892     c20.794-3.458,42.36-12.145,62.367-25.122c3.165-2.053,7.333-1.615,10.004,1.049l23.43,23.379     c3.328,3.322,7.769,2.35,10.755,0.414l28.749-27.731c3.247-3.284,2.306-7.639,0.404-10.593l-22.899-22.85     c-2.729-2.724-3.127-7.007-0.947-10.187c12.493-18.219,21.518-39.453,26.102-61.405c0.774-3.708,4.043-6.365,7.831-6.365h32.617     c2.864-0.489,7.219-2.551,7.219-7.586v-40.338c-0.364-2.133-1.934-7.188-8.596-7.188h-33.192c-3.91,0-7.247-2.826-7.891-6.682     c-3.465-20.744-12.169-42.259-25.171-62.218c-2.066-3.171-1.627-7.356,1.052-10.03l23.43-23.379     c3.314-3.307,2.345-7.717,0.414-10.684L374.256,67.2c-3.306-3.255-7.691-2.312-10.665-0.405l-22.9,22.851     c-2.721,2.714-6.988,3.111-10.162,0.944c-18.261-12.468-39.544-21.476-61.55-26.05c-3.711-0.771-6.372-4.042-6.372-7.833V23.586     c0-4.538-3.435-7.586-6.644-7.586h-40.427c-2.864,0.49-7.219,2.551-7.219,7.586v34.095c0,3.912-2.829,7.25-6.688,7.892     c-20.794,3.458-42.36,12.145-62.367,25.122c-3.165,2.052-7.333,1.616-10.004-1.049l-23.43-23.379     c-3.328-3.322-7.769-2.35-10.755-0.414L66.327,93.584c-3.246,3.283-2.306,7.639-0.405,10.593l22.899,22.85     c2.729,2.724,3.127,7.007,0.947,10.187c-12.493,18.219-21.518,39.453-26.102,61.405c-0.774,3.708-4.043,6.365-7.831,6.365H23.218     c-2.864,0.49-7.218,2.551-7.218,7.586v40.345c0.606,3.642,3.146,7.181,7.62,7.181h33.192c3.91,0,7.247,2.826,7.891,6.682     c3.465,20.744,12.169,42.258,25.171,62.219c2.066,3.171,1.626,7.356-1.052,10.03l-23.43,23.379     c-3.314,3.307-2.345,7.718-0.414,10.685l27.79,28.685c3.304,3.254,7.69,2.311,10.664,0.405l22.9-22.851     c2.721-2.715,6.987-3.111,10.162-0.944c18.261,12.468,39.544,21.476,61.549,26.05c3.711,0.771,6.372,4.042,6.372,7.833V444.818z" />
      </g>
      <g>
        <path
          d="M234,374c-77.196,0-140-62.804-140-140S156.804,94,234,94s140,62.804,140,140S311.196,374,234,374z M234,110     c-68.374,0-124,55.626-124,124s55.626,124,124,124s124-55.626,124-124S302.374,110,234,110z" />
      </g>
    </g>
    <path
      d="M281.172,199.5l-40.369-65.688c-3.041-4.948-10.447-5.007-13.565-0.106l-41.858,65.78c-0.823,1.293-1.257,2.797-1.25,4.33   l-0.227,125.303l16,0.048l0.29-97.521l25.016,0.104c-0.203,40.427-0.202,50.031-0.063,96.053l16-0.048   c-0.139-45.968-0.14-55.559,0.063-95.939l25.117,0.105l-0.195,97.845l16,0.032l0.21-105.27c0.014-0.192,0.017-20.844,0.017-20.844   C282.355,202.207,281.945,200.758,281.172,199.5z M200.181,215.645l-0.042-9.551l33.73-53.006l32.489,52.865l0.005,9.968   L200.181,215.645z" />
  </g>
</svg>
